<svg width="545" height="162" viewBox="0 0 545 162" fill="none" xmlns="http://www.w3.org/2000/svg">
<path d="M0 14.3182C0 10.8169 2.81846 8 6.32178 8H18.2541C25.3925 8 31.5035 13.1072 32.7679 20.1098L32.8732 20.6364H141.581C146.85 20.6364 150.827 25.4277 149.852 30.6138L141.66 74.2883C140.159 82.265 133.205 88.0303 125.092 88.0303H45.1217L46.4651 95.4805C47.0182 98.4816 49.6259 100.667 52.6815 100.667H120.114C123.617 100.667 126.436 103.484 126.436 106.985C126.436 110.486 123.617 113.303 120.114 113.303H52.7078C43.5412 113.303 35.6917 106.748 34.0586 97.7445L20.335 22.3739C20.1507 21.3735 19.2814 20.6364 18.2541 20.6364H6.32178C2.81846 20.6364 0 17.8195 0 14.3182ZM42.1452 134.364C42.1452 127.387 47.8084 121.727 54.7887 121.727C61.769 121.727 67.4323 127.387 67.4323 134.364C67.4323 141.34 61.769 147 54.7887 147C47.8084 147 42.1452 141.34 42.1452 134.364ZM101.148 134.364C101.148 127.387 106.812 121.727 113.792 121.727C120.772 121.727 126.436 127.387 126.436 134.364C126.436 141.34 120.772 147 113.792 147C106.812 147 101.148 141.34 101.148 134.364ZM88.5049 32.8515C85.0015 32.8515 82.1831 35.6684 82.1831 39.1697V48.0152H73.3326C69.8293 48.0152 67.0108 50.832 67.0108 54.3333C67.0108 57.8347 69.8293 60.6515 73.3326 60.6515H82.1831V69.497C82.1831 72.9983 85.0015 75.8152 88.5049 75.8152C92.0082 75.8152 94.8266 72.9983 94.8266 69.497V60.6515H103.677C107.18 60.6515 109.999 57.8347 109.999 54.3333C109.999 50.832 107.18 48.0152 103.677 48.0152H94.8266V39.1697C94.8266 35.6684 92.0082 32.8515 88.5049 32.8515Z" fill="#95BF47"/>
<path d="M166.53 64L182.338 22.784H196.738L212.61 64H198.274L195.074 55.808H184.002L180.866 64H166.53ZM185.666 46.208H193.41L189.506 36.224L185.666 46.208ZM237.875 64.64C235.955 64.64 234.291 64.4053 232.883 63.936C231.475 63.424 230.174 62.72 228.979 61.824L228.339 64H216.435V20.864H230.195V34.496C231.091 34.0267 232.2 33.664 233.523 33.408C234.846 33.152 236.126 33.024 237.363 33.024C241.971 33.024 245.576 34.2187 248.179 36.608C250.782 38.9973 252.083 42.9867 252.083 48.576C252.083 53.9947 250.782 58.0267 248.179 60.672C245.619 63.3173 242.184 64.64 237.875 64.64ZM233.907 54.784C235.272 54.784 236.296 54.336 236.979 53.44C237.704 52.544 238.067 50.9867 238.067 48.768C238.067 46.5493 237.704 45.0347 236.979 44.224C236.296 43.3707 235.272 42.944 233.907 42.944C232.414 42.944 231.176 43.3707 230.195 44.224V53.376C230.707 53.8027 231.262 54.144 231.859 54.4C232.456 54.656 233.139 54.784 233.907 54.784ZM265.343 64.64C263.423 64.64 261.652 64.2987 260.031 63.616C258.41 62.9333 257.108 61.8667 256.127 60.416C255.146 58.9227 254.655 57.024 254.655 54.72C254.655 51.4347 255.722 48.9173 257.855 47.168C259.988 45.376 263.252 44.48 267.647 44.48H275.007V44.032C275.007 43.1787 274.516 42.5387 273.535 42.112C272.596 41.6427 271.06 41.408 268.927 41.408C267.306 41.408 265.556 41.5573 263.679 41.856C261.844 42.112 260.095 42.496 258.431 43.008V35.264C260.052 34.5813 262.079 34.048 264.511 33.664C266.943 33.2373 269.332 33.024 271.679 33.024C276.628 33.024 280.596 34.048 283.583 36.096C286.57 38.1013 288.063 41.28 288.063 45.632V64H276.031L275.455 61.696C274.388 62.592 273.023 63.3173 271.359 63.872C269.738 64.384 267.732 64.64 265.343 64.64ZM270.335 56.896C271.402 56.896 272.298 56.7253 273.023 56.384C273.791 56 274.452 55.5307 275.007 54.976V51.712H270.655C268.394 51.712 267.263 52.5867 267.263 54.336C267.263 56.0427 268.287 56.896 270.335 56.896ZM292.998 64V33.664H305.862L306.182 35.712C307.291 34.9867 308.806 34.368 310.726 33.856C312.646 33.3013 314.694 33.024 316.87 33.024C320.582 33.024 323.291 33.984 324.998 35.904C326.704 37.7813 327.558 40.6613 327.558 44.544V64H313.798V46.144C313.798 45.0773 313.563 44.3307 313.094 43.904C312.624 43.4347 311.835 43.2 310.726 43.2C310.043 43.2 309.318 43.3707 308.55 43.712C307.824 44.0533 307.227 44.4587 306.758 44.928V64H292.998ZM344.301 64.64C341.442 64.64 338.946 64.1493 336.812 63.168C334.679 62.1867 333.015 60.608 331.821 58.432C330.669 56.2133 330.093 53.312 330.093 49.728C330.093 45.9733 330.775 42.88 332.141 40.448C333.506 37.9733 335.319 36.1173 337.581 34.88C339.885 33.6427 342.402 33.024 345.133 33.024C346.37 33.024 347.586 33.152 348.781 33.408C350.018 33.664 351.085 34.0267 351.981 34.496V20.864H365.741V64H353.837L353.197 61.824C352.002 62.72 350.701 63.424 349.293 63.936C347.885 64.4053 346.221 64.64 344.301 64.64ZM348.269 54.784C349.037 54.784 349.719 54.656 350.317 54.4C350.914 54.144 351.469 53.8027 351.981 53.376V44.224C350.999 43.3707 349.762 42.944 348.269 42.944C346.775 42.944 345.709 43.5413 345.069 44.736C344.429 45.888 344.109 47.5733 344.109 49.792C344.109 52.0107 344.45 53.3973 345.133 53.952C345.858 54.5067 346.903 54.784 348.269 54.784ZM387.336 64.64C381.106 64.64 376.477 63.3173 373.448 60.672C370.461 57.984 368.968 54.0373 368.968 48.832C368.968 43.6267 370.482 39.7013 373.512 37.056C376.541 34.368 381.149 33.024 387.336 33.024C393.565 33.024 398.194 34.368 401.224 37.056C404.296 39.7013 405.832 43.6267 405.832 48.832C405.832 54.0373 404.317 57.984 401.288 60.672C398.258 63.3173 393.608 64.64 387.336 64.64ZM387.336 54.72C388.872 54.72 390.002 54.272 390.728 53.376C391.453 52.48 391.816 50.9653 391.816 48.832C391.816 46.6987 391.453 45.184 390.728 44.288C390.002 43.392 388.872 42.944 387.336 42.944C385.842 42.944 384.733 43.392 384.008 44.288C383.325 45.184 382.984 46.6987 382.984 48.832C382.984 50.9653 383.325 52.48 384.008 53.376C384.733 54.272 385.842 54.72 387.336 54.72ZM409.685 64V33.664H422.549L422.869 35.712C423.978 34.9867 425.493 34.368 427.413 33.856C429.333 33.3013 431.381 33.024 433.557 33.024C437.269 33.024 439.978 33.984 441.685 35.904C443.392 37.7813 444.245 40.6613 444.245 44.544V64H430.485V46.144C430.485 45.0773 430.25 44.3307 429.781 43.904C429.312 43.4347 428.522 43.2 427.413 43.2C426.73 43.2 426.005 43.3707 425.237 43.712C424.512 44.0533 423.914 44.4587 423.445 44.928V64H409.685ZM465.212 64.64C461.671 64.64 458.492 64.064 455.676 62.912C452.903 61.7173 450.727 59.9467 449.148 57.6C447.569 55.2533 446.78 52.3733 446.78 48.96C446.78 44.1387 448.167 40.2773 450.94 37.376C453.756 34.4747 457.959 33.024 463.548 33.024C468.625 33.024 472.636 34.304 475.58 36.864C478.524 39.3813 479.996 42.9227 479.996 47.488V52.736H459.388C460.497 55.0827 463.612 56.256 468.732 56.256C470.609 56.256 472.423 56.1067 474.172 55.808C475.921 55.4667 477.329 55.0827 478.396 54.656V62.464C475.367 63.9147 470.972 64.64 465.212 64.64ZM459.388 45.568H468.22V44.736C468.22 43.84 467.9 43.072 467.26 42.432C466.663 41.792 465.575 41.472 463.996 41.472C462.289 41.472 461.095 41.8347 460.412 42.56C459.729 43.2853 459.388 44.288 459.388 45.568ZM496.738 64.64C493.879 64.64 491.383 64.1493 489.25 63.168C487.117 62.1867 485.453 60.608 484.258 58.432C483.106 56.2133 482.53 53.312 482.53 49.728C482.53 45.9733 483.213 42.88 484.578 40.448C485.943 37.9733 487.757 36.1173 490.018 34.88C492.322 33.6427 494.839 33.024 497.57 33.024C498.807 33.024 500.023 33.152 501.218 33.408C502.455 33.664 503.522 34.0267 504.418 34.496V20.864H518.178V64H506.274L505.634 61.824C504.439 62.72 503.138 63.424 501.73 63.936C500.322 64.4053 498.658 64.64 496.738 64.64ZM500.706 54.784C501.474 54.784 502.157 54.656 502.754 54.4C503.351 54.144 503.906 53.8027 504.418 53.376V44.224C503.437 43.3707 502.199 42.944 500.706 42.944C499.213 42.944 498.146 43.5413 497.506 44.736C496.866 45.888 496.546 47.5733 496.546 49.792C496.546 52.0107 496.887 53.3973 497.57 53.952C498.295 54.5067 499.341 54.784 500.706 54.784ZM174.713 147.64C166.905 147.64 160.974 145.827 156.921 142.2C152.91 138.573 150.905 133.347 150.905 126.52C150.905 119.523 152.889 114.211 156.857 110.584C160.825 106.957 166.734 105.144 174.585 105.144C177.23 105.144 179.556 105.336 181.561 105.72C183.566 106.104 185.508 106.659 187.385 107.384V119.352C185.422 118.499 183.481 117.859 181.561 117.432C179.684 117.005 177.678 116.792 175.545 116.792C172.089 116.792 169.444 117.539 167.609 119.032C165.817 120.483 164.921 122.979 164.921 126.52C164.921 129.976 165.86 132.429 167.737 133.88C169.657 135.288 172.302 135.992 175.673 135.992C177.764 135.992 179.769 135.8 181.689 135.416C183.609 134.989 185.55 134.349 187.513 133.496V145.528C185.636 146.211 183.673 146.723 181.625 147.064C179.62 147.448 177.316 147.64 174.713 147.64ZM200.781 147.64C198.861 147.64 197.09 147.299 195.469 146.616C193.847 145.933 192.546 144.867 191.565 143.416C190.583 141.923 190.093 140.024 190.093 137.72C190.093 134.435 191.159 131.917 193.293 130.168C195.426 128.376 198.69 127.48 203.085 127.48H210.445V127.032C210.445 126.179 209.954 125.539 208.973 125.112C208.034 124.643 206.498 124.408 204.365 124.408C202.743 124.408 200.994 124.557 199.117 124.856C197.282 125.112 195.533 125.496 193.869 126.008V118.264C195.49 117.581 197.517 117.048 199.949 116.664C202.381 116.237 204.77 116.024 207.117 116.024C212.066 116.024 216.034 117.048 219.021 119.096C222.007 121.101 223.501 124.28 223.501 128.632V147H211.469L210.893 144.696C209.826 145.592 208.461 146.317 206.797 146.872C205.175 147.384 203.17 147.64 200.781 147.64ZM205.773 139.896C206.839 139.896 207.735 139.725 208.461 139.384C209.229 139 209.89 138.531 210.445 137.976V134.712H206.093C203.831 134.712 202.701 135.587 202.701 137.336C202.701 139.043 203.725 139.896 205.773 139.896ZM228.435 147V116.664H241.811L242.131 118.776C243.283 118.093 244.798 117.475 246.675 116.92C248.552 116.365 250.472 116.067 252.435 116.024V126.2C251.368 126.243 250.174 126.349 248.851 126.52C247.571 126.691 246.334 126.904 245.139 127.16C243.987 127.373 243.006 127.651 242.195 127.992V147H228.435ZM269.255 147.64C264.903 147.64 261.767 146.573 259.847 144.44C257.927 142.264 256.967 139.341 256.967 135.672V126.712H253.191V116.664H256.967V110.584L270.727 107.576V116.664H277.319L276.935 126.712H270.727V134.84C270.727 136.888 271.879 137.912 274.183 137.912C275.463 137.912 276.743 137.699 278.023 137.272V146.104C276.785 146.616 275.463 147 274.055 147.256C272.647 147.512 271.047 147.64 269.255 147.64ZM293.81 147V105.784H316.082C319.538 105.784 322.375 106.445 324.594 107.768C326.855 109.048 328.519 110.819 329.586 113.08C330.695 115.341 331.25 117.923 331.25 120.824C331.25 123.597 330.546 126.051 329.138 128.184C327.73 130.275 325.959 131.939 323.826 133.176C324.637 133.816 325.319 134.755 325.874 135.992L330.674 147H316.338L312.114 137.464C311.815 136.824 311.495 136.376 311.154 136.12C310.813 135.864 310.279 135.736 309.554 135.736H307.57V147H293.81ZM307.57 125.112H312.626C315.698 125.112 317.234 123.683 317.234 120.824C317.234 117.923 315.805 116.472 312.946 116.472H307.57V125.112ZM351.275 147.64C347.733 147.64 344.555 147.064 341.739 145.912C338.965 144.717 336.789 142.947 335.211 140.6C333.632 138.253 332.843 135.373 332.843 131.96C332.843 127.139 334.229 123.277 337.003 120.376C339.819 117.475 344.021 116.024 349.611 116.024C354.688 116.024 358.699 117.304 361.643 119.864C364.587 122.381 366.059 125.923 366.059 130.488V135.736H345.451C346.56 138.083 349.675 139.256 354.795 139.256C356.672 139.256 358.485 139.107 360.235 138.808C361.984 138.467 363.392 138.083 364.458 137.656V145.464C361.429 146.915 357.035 147.64 351.275 147.64ZM345.451 128.568H354.283V127.736C354.283 126.84 353.963 126.072 353.323 125.432C352.725 124.792 351.637 124.472 350.059 124.472C348.352 124.472 347.157 124.835 346.475 125.56C345.792 126.285 345.451 127.288 345.451 128.568ZM387.025 147.64C383.313 147.64 380.07 147.064 377.297 145.912C374.566 144.76 372.433 143.032 370.897 140.728C369.361 138.381 368.593 135.416 368.593 131.832C368.593 128.248 369.361 125.283 370.897 122.936C372.433 120.589 374.587 118.861 377.361 117.752C380.134 116.6 383.334 116.024 386.961 116.024C389.307 116.024 391.419 116.195 393.297 116.536C395.217 116.835 397.03 117.389 398.737 118.2V127.8C396.134 126.563 393.233 125.944 390.033 125.944C387.558 125.944 385.702 126.392 384.465 127.288C383.227 128.141 382.609 129.656 382.609 131.832C382.609 133.923 383.227 135.437 384.465 136.376C385.702 137.272 387.579 137.72 390.097 137.72C391.633 137.72 393.147 137.528 394.641 137.144C396.134 136.717 397.542 136.163 398.865 135.48V145.528C397.158 146.296 395.323 146.829 393.361 147.128C391.441 147.469 389.329 147.64 387.025 147.64ZM419.773 147.64C413.544 147.64 408.914 146.317 405.885 143.672C402.898 140.984 401.405 137.037 401.405 131.832C401.405 126.627 402.92 122.701 405.949 120.056C408.978 117.368 413.586 116.024 419.773 116.024C426.002 116.024 430.632 117.368 433.661 120.056C436.733 122.701 438.269 126.627 438.269 131.832C438.269 137.037 436.754 140.984 433.725 143.672C430.696 146.317 426.045 147.64 419.773 147.64ZM419.773 137.72C421.309 137.72 422.44 137.272 423.165 136.376C423.89 135.48 424.253 133.965 424.253 131.832C424.253 129.699 423.89 128.184 423.165 127.288C422.44 126.392 421.309 125.944 419.773 125.944C418.28 125.944 417.17 126.392 416.445 127.288C415.762 128.184 415.421 129.699 415.421 131.832C415.421 133.965 415.762 135.48 416.445 136.376C417.17 137.272 418.28 137.72 419.773 137.72ZM449.311 147L437.343 116.664H451.679L456.479 132.536L461.343 116.664H475.679L463.711 147H449.311ZM493.15 147.64C489.608 147.64 486.43 147.064 483.614 145.912C480.84 144.717 478.664 142.947 477.086 140.6C475.507 138.253 474.718 135.373 474.718 131.96C474.718 127.139 476.104 123.277 478.878 120.376C481.694 117.475 485.896 116.024 491.486 116.024C496.563 116.024 500.574 117.304 503.518 119.864C506.462 122.381 507.934 125.923 507.934 130.488V135.736H487.326C488.435 138.083 491.55 139.256 496.67 139.256C498.547 139.256 500.36 139.107 502.11 138.808C503.859 138.467 505.267 138.083 506.333 137.656V145.464C503.304 146.915 498.91 147.64 493.15 147.64ZM487.326 128.568H496.158V127.736C496.158 126.84 495.838 126.072 495.198 125.432C494.6 124.792 493.512 124.472 491.934 124.472C490.227 124.472 489.032 124.835 488.35 125.56C487.667 126.285 487.326 127.288 487.326 128.568ZM511.748 147V116.664H525.124L525.444 118.776C526.596 118.093 528.11 117.475 529.988 116.92C531.865 116.365 533.785 116.067 535.748 116.024V126.2C534.681 126.243 533.486 126.349 532.164 126.52C530.884 126.691 529.646 126.904 528.452 127.16C527.3 127.373 526.318 127.651 525.508 127.992V147H511.748Z" fill="#171717"/>
</svg>
