<svg width="183" height="68" viewBox="0 0 183 68" fill="none" xmlns="http://www.w3.org/2000/svg">
    <path d="M21.0241 0.767916H22.6561L30.2401 27.0719L19.2001 66.8159H0.000105478L21.0241 0.767916ZM42.6241 55.1039H26.5921L30.6241 40.3199H38.3041L26.9761 0.767916H44.5441L65.5681 66.8159H45.9841L42.6241 55.1039ZM93.8424 0.0959129C94.3544 0.0319138 95.1544 -8.58307e-05 96.2424 -8.58307e-05H98.7384C103.026 -8.58307e-05 107.218 0.319914 111.314 0.959913C113.426 1.27991 115.058 1.59991 116.21 1.91991V15.6479C115.25 15.5839 113.65 15.4239 111.41 15.1679C108.402 14.8479 105.778 14.6879 103.538 14.6879C101.042 14.6879 99.0264 14.7839 97.4904 14.9759C96.0184 15.1039 94.8024 15.3599 93.8424 15.7439V0.0959129ZM98.7384 67.5839C92.3384 67.5839 87.2504 67.0399 83.4744 65.9519C79.7624 64.7999 76.9464 62.9119 75.0264 60.2879C73.1704 57.7919 71.8904 54.4959 71.1864 50.3999C70.5464 46.2399 70.2264 40.7039 70.2264 33.7919C70.2264 27.7119 70.4504 22.7839 70.8984 19.0079C71.4104 15.2319 72.3064 12.0639 73.5864 9.50392C74.9304 6.87992 76.8824 4.86392 79.4424 3.45592C82.0664 1.98392 85.5224 0.991915 89.8104 0.479914V33.7919C89.8104 37.3759 89.8744 40.8319 90.0024 44.1599C90.1304 46.7199 90.6104 48.6399 91.4424 49.9199C92.3384 51.1999 93.7144 51.9999 95.5704 52.3199C97.3624 52.7039 100.018 52.8959 103.538 52.8959C107.186 52.8959 110.29 52.7359 112.85 52.4159C113.874 52.3519 115.122 52.1919 116.594 51.9359V65.8559C113.458 66.5599 109.906 67.0399 105.938 67.2959C103.762 67.4879 101.362 67.5839 98.7384 67.5839ZM126.517 0.767916H145.717V66.8159H126.517V0.767916ZM153.589 44.3519H149.749V29.6639H153.013C154.997 29.6639 156.501 29.5999 157.525 29.4719C158.549 29.2799 159.349 28.9599 159.925 28.5119C160.437 28.0639 160.789 27.3919 160.981 26.4959C161.173 25.5999 161.269 24.2879 161.269 22.5599C161.269 20.8319 161.173 19.5199 160.981 18.6239C160.789 17.6639 160.437 16.9599 159.925 16.5119C159.413 16.0639 158.645 15.7759 157.621 15.6479C156.661 15.5199 155.125 15.4559 153.013 15.4559H149.749V0.767916H159.637C164.181 0.767916 167.861 1.21592 170.677 2.11192C173.493 3.00792 175.669 4.38391 177.205 6.23991C178.613 7.96791 179.541 10.1119 179.989 12.6719C180.501 15.2319 180.757 18.5279 180.757 22.5599C180.757 27.7439 180.277 31.7439 179.317 34.5599C177.973 38.1439 175.605 40.6719 172.213 42.1439L182.197 66.8159H162.037L153.589 44.3519Z" fill="#101828"/>
</svg>
