<svg width="217" height="107" viewBox="0 0 217 107" fill="none" xmlns="http://www.w3.org/2000/svg">
    <path d="M30.9628 11.688H34.7068L31.9228 11.784L30.9628 11.688ZM10.1308 69.768L10.5148 68.808L9.36275 66.792L9.45875 66.696H9.26675L9.07475 66.312H9.55475L10.0348 64.872L9.65075 61.128L11.4748 60.936L11.6668 60.168L12.2428 64.392L13.8748 59.976L14.9308 57.864L13.4908 57.576L12.2428 59.976L10.9948 58.92L11.6668 55.944L11.4748 55.656L12.1468 53.832L13.2028 52.968L14.2588 54.792L14.4508 54.312H15.0268L17.6188 52.584L13.7788 52.2L13.6828 52.296L16.8508 52.584L14.2588 54.312L13.2988 52.584L12.7228 52.968L14.7388 47.208L14.6428 46.728L15.2188 45.096L14.4508 43.944L16.9468 43.368L17.3307 42.408V42.312L15.3148 42.792L17.1388 37.416L20.5948 37.512L19.6348 38.472L21.6508 37.896L20.5948 37.032L17.1388 36.936L20.9788 26.088H21.0748L21.8428 23.784L22.4188 25.8L22.9948 25.608L22.2268 22.536L23.4748 18.888L24.7228 18.984L25.2028 17.544L26.8348 15.24L31.4427 14.376L29.0428 16.296L31.2508 15.144V15.048L30.0028 15.72L31.3468 14.568L31.9228 12.84L33.9388 13.896L36.2428 13.8H37.3948L36.6268 12.264H40.3708L44.1148 12.84L43.0588 13.8H43.8268L43.7308 14.376L42.5788 14.184L41.4268 15.24L39.6028 16.776L41.2348 13.992L40.4668 13.896L38.2588 13.992L39.0268 15.624L38.1628 15.432L39.6028 17.256L39.6988 18.216L41.4268 16.776L41.5228 16.872L41.9068 16.488L41.6188 15.72L41.5228 15.624L41.4268 15.336L43.0588 15.432L44.1148 14.568V12.936L44.2108 12.36H47.9548L50.1628 13.416L50.5468 16.488L48.4348 16.008L50.0668 18.504H49.8748L50.5468 18.696L51.4108 18.792L51.7948 18.504L51.8908 18.888L52.9468 19.08L52.6588 15.432L53.2348 16.584L53.0428 14.856L50.8348 13.8H52.7548L55.5388 14.664L55.8268 18.312L54.0028 18.024L54.6748 19.368L55.8268 19.08L55.2508 20.808L56.7868 25.32L57.3628 25.896L57.1708 26.184L57.5548 27.24L59.2828 28.008L58.8988 29.64L58.0348 28.68L59.1868 32.136L57.3628 29.544L57.6508 28.296L57.0748 27.624L56.4028 27.336L54.5788 29.928H54.4828L54.7708 30.504L53.1388 29.832H51.8908L50.2588 29.928L50.0668 30.792L52.7548 30.504L55.4428 30.6L55.8268 31.272L56.9788 29.64L58.8028 32.232L57.5548 32.712L56.5948 32.904L56.7868 33.192L56.3068 33L54.9628 33.384L56.6908 35.4L55.0588 35.496L55.4428 35.592L55.3468 37.8L53.4268 35.496H53.1388L49.7788 35.208L50.7388 32.328L49.3948 32.808L45.3628 32.04L44.3068 33.864L48.5308 34.632L48.8188 36.552L48.9148 36.36H49.2028L48.8188 34.344L50.1628 33.864L49.2988 36.36L52.2748 36.648L52.9468 38.088H55.7308L55.8268 37.896L56.9788 37.8L56.0188 40.104L54.8668 40.968L55.8268 40.872L57.9388 39.336L58.7068 39.72L59.5708 37.512L58.4188 37.608L58.5148 35.4L57.1708 32.808L60.5308 31.848L61.7788 31.368L64.3708 38.568L63.3148 37.128L63.0268 38.088L63.3148 38.568L64.5628 42.216H64.4668L66.9628 49.416L66.4828 52.584L66.5788 52.872L67.2508 52.968H67.9228L69.8428 58.44L68.2108 57.288L68.3068 57.96L68.6908 58.248L69.3628 60.264H70.2268L71.0908 61.992L74.2588 71.016L73.5868 71.784L73.4908 71.592L74.5468 74.568V75.144L75.6988 78.792H75.8908L73.7788 80.904H70.2268L72.9148 77.928H72.4348L70.0348 80.616H68.3068L67.2508 77.736H67.4428L67.9228 75.432L67.8268 75.048H67.6348L67.2508 77.064L65.0428 79.08L62.5468 79.368L61.7788 80.424L65.0428 80.04L67.1548 78.12L68.2108 81L65.4268 80.328L65.6188 80.424L68.3068 81.096H66.4828L66.1948 80.904H57.6508L59.7628 80.328H59.4748H57.7468L55.3468 79.848L53.4268 76.392L53.0428 74.472L51.7948 71.304L49.3948 68.616L51.8908 66.888L53.0428 63.816L51.6028 62.952L52.3708 59.88L51.5068 58.248L46.9948 57L44.4988 58.056L44.2108 58.44L46.8028 57.288L51.3148 58.536L52.1788 60.168L51.4108 63.24L49.7788 67.56L47.2828 69.288L49.6828 71.976L47.6668 72.264H40.4668L40.1788 72.552L38.2588 71.976H37.2028L34.5148 72.552L32.3068 70.44V70.152H29.1388L29.9068 68.424L29.6188 67.848L28.7548 70.056L27.9868 72.168L26.4508 76.008V76.392L25.0108 78.216L21.6508 78.12L19.5388 76.584L16.9468 75.816L16.7548 76.008L19.9228 76.872L22.0348 78.408L25.3948 78.6L23.0908 79.08H5.33075L3.31475 76.296L6.48275 67.368L5.71475 71.112L7.53875 73.416L4.65875 72.744L6.48275 76.68L6.57875 76.392L5.81075 74.664L7.05875 74.952L7.53875 73.416L8.11475 73.512L7.82675 73.032L8.49875 69.192L9.07475 67.752L8.40275 66.696H9.26675L9.36275 66.792L9.07475 67.752L10.1308 69.768ZM42.0988 18.024L42.5788 18.12L42.0988 17.064L41.5228 16.968L42.1948 18.6L42.4828 18.504L42.0988 18.024ZM34.1308 18.696L34.7068 20.424L33.6508 17.064L31.6348 17.16L31.0588 18.792L34.1308 18.696ZM33.0748 27.432L32.4988 28.584L32.3068 27.624L30.0988 28.296L31.9228 30.408L31.7308 31.176L32.1148 32.04L34.8988 32.136L38.1628 32.712L40.0828 32.904H40.4668L40.7548 32.136L40.5628 29.928L39.3148 32.328L36.0508 31.752L33.0748 31.656L31.2508 29.544L33.3628 28.968L33.0748 28.872L34.4188 26.088L36.5308 24.072L38.1628 26.376L36.6268 29.352L37.5868 29.64L38.6428 27.528L38.1628 26.568L39.0268 26.664L39.3148 26.184L39.6028 26.76L40.7548 26.856L43.0588 27.144H43.3468L43.4428 26.856L41.0428 26.568L39.4108 24.264L40.2748 23.784L39.5068 22.152L41.6188 23.016L41.8108 22.92L41.9068 23.208L42.0988 23.304L42.6748 20.232L43.8268 21.672L44.2108 20.808L44.8828 22.056L45.4588 21.768L45.1708 22.44L45.4588 22.92L46.9948 22.056L48.8188 21.192H48.6268L49.7788 20.232L48.9148 18.984L46.9948 19.848L46.1308 19.56L44.3068 20.616L42.6748 18.696L42.4828 19.464L42.6748 19.944L42.3868 20.04L41.8108 22.728L40.5628 20.616L39.7948 20.808V20.52L38.9308 22.632L38.6428 22.056L36.5308 23.208L34.4188 25.224L32.5948 24.84L32.7868 25.608L33.8428 25.8L33.0748 27.432ZM37.2028 18.984L37.7788 19.848L39.7948 20.52L39.6988 19.752L37.2028 18.984ZM33.1708 21.096L33.4588 21.672L33.9388 21.576L33.8428 21.48L33.1708 21.096ZM46.8988 23.4L50.7388 24.36L50.2588 21.576L49.2988 21.384L46.8988 23.4ZM27.6988 24.36L29.3308 22.056L27.6028 21.672L26.8348 22.728L24.5308 22.632L24.8188 23.208L27.1228 23.304L26.1628 25.32L27.2188 25.416L27.4108 25.032L27.3148 24.936L27.6028 24.552L27.6988 24.36ZM52.4668 22.248L53.1388 22.824L54.5788 23.016L55.0588 21.672L52.4668 22.248ZM43.6348 26.376H43.4428L43.5388 26.664L44.7868 23.592L44.6908 23.496L43.6348 26.376ZM53.9067 26.472H54.0028L53.3308 25.128L52.5627 26.088L54.0988 26.76L54.0028 26.568L53.9067 26.472ZM22.1308 28.776L25.0108 27.528L25.2988 26.952V27.432L25.5868 27.336L25.3948 27.816L25.4908 28.872L26.7388 30.12L25.5868 32.712L25.4908 31.752L24.8188 34.152L25.8748 35.496L26.6428 32.712L29.2348 32.616L29.7148 31.752L28.8508 30.984L26.8348 28.488L25.2988 26.952L21.8428 28.392L23.3788 31.272L23.4748 31.176L22.1308 28.776ZM45.3628 28.392L45.4588 31.176L46.3228 29.64L46.2268 27.912H46.1308H45.6508L45.3628 28.392ZM25.9708 32.616L27.1228 30.024L29.1388 32.52L25.9708 32.616ZM43.0588 33L41.8108 30.696L41.6188 31.272L42.4828 33H43.0588ZM53.9067 32.04L54.6748 32.904L54.9628 32.52L53.9067 32.04ZM33.7468 35.784L32.9788 34.152L32.0188 33.768L31.3468 34.632L31.5388 34.92L33.7468 35.784ZM40.5628 57.672H42.0988L42.0028 57.48L41.4268 57.384L42.0028 56.808L41.6188 54.408L40.7548 53.832L44.3068 51.432V51.336L42.6748 46.056L43.6348 46.248L43.5388 42.792L47.9548 43.848L50.7388 42.792L49.2028 45.864L50.9308 45.576L49.2028 48.744L51.2188 48.36L52.8508 45.384L54.0988 45.576L53.2348 42.888L52.6588 42.696L53.3308 44.712L50.4508 45.192L51.8908 42.312H51.7948L52.1788 41.16L53.5228 41.064L53.2348 40.392L50.2588 40.584L49.8748 41.736L47.5708 38.856L48.5308 37.128H47.1868L46.4188 38.472L48.7228 41.352L45.9388 42.408L42.6748 41.64V42.408V45.96L40.5628 38.952L40.4668 38.856L39.4108 37.896L39.9868 37.512L39.0268 35.304H38.9308L38.3548 37.512L37.8748 37.608L36.9148 39.432L34.1308 39.336L33.8428 40.104V40.2L36.9148 40.392L37.2028 42.504H37.2988L37.2028 42.6L37.2988 42.888L36.9148 42.984L35.5708 45.288L34.5148 44.136H34.4188L35.5708 45.48L32.4988 46.44L31.6348 43.272L32.4988 46.536L32.7868 46.728L35.5708 45.864L35.6668 48.456L34.3228 48.744H34.2268L33.8428 51.144L37.6828 51.912H39.5068L40.7548 52.584L39.2188 56.136L36.2428 55.656L33.5548 56.328L34.1308 57.576L36.1468 57L36.2428 56.904L38.1628 60.936L38.4508 61.032L38.7388 59.784L37.4908 57.288L40.4668 57.768V57.864L40.6588 57.96L40.5628 57.672ZM27.3148 37.896V37.992L26.4508 37.032H26.7388L26.1628 36.264L23.2828 36.744L22.5148 37.8L24.5308 37.992L24.8188 38.28L27.2188 37.992L27.3148 37.896ZM28.3708 37.224V37.512L28.7548 37.032L27.7948 36.936L27.6988 37.128L28.3708 37.224ZM32.8828 37.512L30.7708 40.2L30.8668 40.296L32.8828 37.8L33.7468 40.104H33.8428L32.8828 37.512L32.5948 37.032L28.3708 37.608V38.088L32.8828 37.512ZM28.4668 39.144L27.5068 38.088L29.3308 40.008L29.2348 39.336L28.4668 38.184V39.144ZM16.7548 39.048L17.5228 40.872L17.9068 41.16V41.256L18.0028 41.064L18.0988 39.912L16.7548 39.048ZM60.1468 42.792L61.6828 42.888L60.9148 41.544L60.1468 42.792ZM25.1068 44.616L26.2588 44.328L27.0268 42.696L27.2188 43.08L27.7948 42.888L26.6428 41.544L25.1068 44.616ZM62.9308 43.08L62.3548 43.176L62.1628 43.272L64.3708 42.792V42.312L62.9308 42.888V43.08ZM28.2748 42.888L28.3708 43.752L28.2748 42.888ZM35.6668 48.36L35.5708 45.672L37.2988 42.984L35.6668 48.36ZM61.2028 45.864L60.9148 46.248L63.3148 45.672L61.9708 43.752L61.5868 44.808L61.8748 45.192L61.3948 45.288L61.2028 45.864ZM25.5868 51.912L26.0668 47.208L26.7388 47.688L28.3708 45.96L28.2748 45.672L25.1068 46.536L25.2028 46.344L22.7068 46.824L22.3228 46.728L21.1708 48.744L18.8668 46.632H18.5788L18.1948 48.552L17.2348 45.96L17.8108 46.056L18.1948 44.328L20.3068 46.152H21.1708L22.5148 43.848L18.1948 44.04L16.9468 43.752L15.9868 45.864L16.7548 46.92L17.5228 48.936L17.7148 48.84L17.5228 48.552H18.1948H18.2908L20.7868 48.744L22.5148 49.032L25.8748 48.456L25.4908 52.2H25.8748L26.7388 51.048L25.5868 51.912ZM28.4668 45.576L28.3708 43.848L28.4668 45.576V45.672V45.96L30.5788 46.92H30.6748L30.4828 46.632L28.4668 45.576ZM28.4668 46.056L28.2748 47.88H28.3708L28.4668 46.056ZM61.9708 49.704L61.1068 50.472L61.2988 51.624L62.7388 52.104L62.4508 49.704L60.8188 46.536L60.2428 47.208L61.0108 48.744L59.6667 48.264L60.0508 49.128L61.0108 49.416L61.9708 49.704ZM28.1788 49.704V49.8L28.2748 48.072L28.1788 49.8V49.704ZM53.5228 48.168L51.6028 48.456L51.2188 51.912L54.1948 51.816L54.2908 51.72H53.1388L53.5228 48.168ZM30.7708 50.376L29.7148 49.416L28.3708 49.992L29.0428 50.568L30.7708 51.048L30.1948 51.624L30.6748 52.008H30.8668L31.0588 51.24L30.7708 50.856H31.1548L31.6348 48.648L31.1548 48.84L30.7708 50.376ZM56.3068 51.624H55.5388L55.7308 52.584L57.6508 51.816L57.1708 48.744L56.3068 51.624ZM27.9868 50.28L28.0828 50.088L27.8907 49.896L27.7948 49.992L27.8907 50.28H27.9868ZM55.5388 66.792L56.2108 65.448L55.7308 64.68L56.0188 61.224L55.0588 60.168L57.1708 57.96L56.9788 57.672L58.8028 54.888L60.1468 58.824L61.1068 60.552L61.2028 60.648L63.7948 61.032L63.3148 63.336V63.24H61.0108V63.336H63.9868L64.4668 61.032L61.7788 60.648L62.3548 58.824L61.7788 60.648L60.8188 58.92L61.7788 58.728L60.5308 54.984L63.6028 54.504L61.2988 51.72V52.008L59.9548 51.624V51.528L59.3788 51.816L61.2988 54.12L58.2268 54.6L54.0028 55.368L51.4108 55.464V55.56L54.0988 55.464L58.3228 54.696L56.4988 57.48L54.1948 59.88L53.9067 62.952L55.7308 64.008L55.0588 65.352L55.5388 66.024L54.3868 66.888L55.3468 68.04L56.0188 67.56L55.5388 66.792ZM30.2908 52.008L29.9068 51.912L29.8108 52.008H30.2908ZM25.3948 52.776L25.4908 52.68V52.584L25.3948 52.776ZM30.1948 55.656L32.0188 55.464L32.5948 54.696L32.6908 55.464H32.9788L32.5948 53.16L32.2108 52.68L31.6348 53.544L32.5948 54.696L30.9628 54.6L30.1948 55.656ZM25.3948 53.16L25.6828 52.968H25.3948V53.16ZM27.1228 58.056L27.9868 59.688L28.2748 58.44L29.1388 60.168L31.2508 60.264L32.3068 58.056L30.1948 58.152L30.5788 57.576L28.2748 57.48L27.1228 55.464L26.0668 53.544L25.1068 54.888L25.7788 56.04L27.1228 56.136L26.6428 57.576L26.9308 58.056H26.4508L26.3548 58.44L24.8188 58.344L22.9948 60.072L23.7628 63.912L23.0908 60.072L26.3548 60.36L27.1228 58.056ZM67.7308 55.08H66.7708V55.176L68.4028 55.08L67.0588 53.736L66.9628 54.312L67.7308 55.08ZM41.2348 57.576L39.2188 57.384L40.7548 53.832L41.2348 57.576ZM18.2908 54.312L18.1948 58.152L18.7708 58.248L18.8668 54.312H18.2908ZM43.2508 55.272L43.4428 54.312L43.2508 55.272ZM10.5148 58.728L10.2268 59.112L11.2828 59.976L9.17075 60.168L9.93875 59.016L11.4748 54.6L10.5148 58.728ZM44.0188 55.848V55.944L45.7468 56.04L45.9388 55.752L43.5388 55.56L44.0188 55.848ZM65.8108 57.768L63.7948 58.152L63.6988 58.248L66.1948 57.768L65.9068 56.04L65.6188 56.424L65.8108 57.768ZM42.3868 57.576H42.8668H42.4828H42.3868ZM44.0188 58.536L44.1148 58.44L43.8268 57.768H43.5388L42.9628 58.344L44.0188 58.536ZM20.6908 60.456L22.1308 57.864L20.6908 60.456ZM69.0748 60.072H68.5948V60.264H69.1708L69.0748 60.072ZM40.5628 60.744L41.2348 62.952L45.2668 64.68L44.7868 63.432L41.6188 62.088L43.2508 60.552L40.5628 60.648V60.744ZM58.3228 62.664L59.0908 63.528L59.2828 62.184L58.6108 60.552L58.3228 62.664ZM36.9148 60.84L37.6828 60.936L36.7228 60.552L36.9148 60.84ZM38.2588 61.608L38.3548 61.32L38.2588 61.608ZM28.9468 64.872L29.9068 66.984L32.4028 66.024L32.5948 65.736L32.4988 64.968L34.2268 66.888L34.9948 67.272L37.1068 66.984L35.2828 69.96L38.7388 70.248L41.0428 67.464L43.9228 66.792L45.3628 69.768H45.5548L43.9228 66.504L41.2348 67.176V67.272H41.0428L38.7388 69.96L37.2988 66.984L35.4748 66.792L37.1068 64.104L35.1868 64.392L32.4988 61.416L32.7868 63.144L31.4427 62.376L31.0588 63.048L32.7868 64.008L29.3308 65.352L27.6988 62.856L27.4108 64.2H27.1228L26.6428 65.16L27.2188 65.064L27.6028 64.2L28.1788 64.968L28.9468 64.872ZM16.5628 61.512L16.4668 61.704L16.5628 61.896H16.8508L16.5628 61.512ZM38.4508 63.72L37.4908 63.624L37.3948 63.912L37.9708 65.064L38.4508 63.72ZM18.6748 66.312H21.3628H21.2668L22.4188 63.72L22.1308 63.624L20.9788 66.312H18.4828H18.6748ZM58.7068 66.12L59.0908 64.008L57.5548 66.888L58.8988 68.904L58.7068 66.12ZM16.4668 64.392L16.5628 64.2L15.3148 64.008L15.6028 64.872L16.4668 64.392ZM65.1388 69.288L66.1948 69.384L67.2508 66.12L68.3068 64.2L66.8668 64.296L65.9068 66.12L65.6188 66.984L65.7148 67.464L65.1388 68.328L64.9468 68.904L65.1388 69.288ZM24.1468 66.792H24.2428L24.6268 66.408L24.1468 66.216V66.792ZM21.0748 67.656H21.7468L21.3628 66.504L20.6908 67.656H21.0748ZM57.0748 66.792H57.1708L56.9788 66.6L57.0748 66.792ZM62.4508 69.576L62.0668 70.344V70.44L62.6428 69.384L61.3948 69.096L61.4908 69.384L62.4508 69.576ZM71.7628 69.192L71.4748 70.152L72.6268 71.688L73.1068 71.112L71.7628 69.192ZM19.3468 70.056H19.1548L19.3468 70.344H19.5388L19.8268 69.768L19.9228 69.672L19.7308 69.48L19.3468 70.056ZM69.6508 72.744L67.5388 72.648L67.6348 73.224H69.5548L69.8428 72.36L68.2108 70.056L67.6348 69.96L69.6508 72.744ZM21.3628 73.032L23.7628 73.608L23.1868 70.44L21.9388 70.152L22.3228 71.208L20.5948 71.304L21.3628 73.032ZM32.8828 73.128L32.4988 71.016L34.8028 73.128H32.8828ZM62.9308 71.88L62.8348 72.072L63.6988 71.88L64.1788 75.432V74.856H64.3708L63.9868 71.4L62.7388 71.688L62.9308 71.88ZM26.8348 78.6V78.216L28.3708 74.376L26.8348 78.6ZM61.7788 77.544V74.472V74.376L61.6828 74.568V78.12L63.1228 77.544L63.6028 76.872L61.7788 77.544ZM100.686 27.816L97.7098 24.264L95.1178 24.168L98.0938 27.72L99.1498 26.472L98.1898 29.352V29.64L101.55 30.024L102.414 29.928L102.606 29.64H102.414L103.47 26.472L102.414 27.816L103.278 25.512L102.99 24.264L103.662 24.552L103.758 24.264H102.51L101.07 21.672L103.086 22.152L104.814 23.784L105.102 22.92L104.238 22.152L102.222 21.672L102.702 18.504L101.55 18.024L99.0538 17.928H98.6698L98.0938 21.672L99.4377 24.168L102.03 24.264L100.686 27.816ZM112.206 16.008L114.126 15.432L112.878 15.144L112.206 16.008ZM120.174 17.064L121.326 17.832L121.71 17.928L119.982 16.68L118.734 16.008V16.296L120.174 17.064ZM125.166 18.984L123.918 20.808V20.904L125.166 19.272L126.222 16.2L125.934 16.104L125.07 18.888L125.166 18.984ZM129.966 21.288L130.254 22.056L131.118 21.768L130.446 20.136L129.966 21.288ZM109.134 20.904L108.942 21.768L110.478 21.384L109.134 20.904ZM115.47 21L113.934 21.384L116.718 22.248L116.622 21.384L115.47 21ZM111.822 23.88L112.974 21.672L112.11 21.864L111.534 21.672L110.382 23.88L113.358 24.168L114.894 26.76L111.63 26.664L110.286 27.816L107.406 26.952L107.502 27.432L107.214 27.912L109.998 28.776L111.342 27.624L114.606 27.72H116.43L116.622 26.76L119.598 29.928L121.422 30.504L122.862 28.968L123.342 31.08V30.984L122.862 28.872L119.79 27.912L118.254 26.28L117.87 26.76H115.662L114.126 24.168V24.072L111.822 23.88ZM116.43 24.36L117.87 21.96V21.864L116.43 24.36ZM93.3898 29.544L93.1978 30.504V30.6L93.3898 30.696L94.3498 30.12L94.6378 28.776L93.7738 27.144L93.1978 23.496L93.0058 23.688L93.5818 27.144L91.7578 26.856L92.0458 27.816L93.3898 29.544ZM81.3898 24.456L80.6218 26.568L79.6618 27.912L81.3898 24.456ZM90.6058 27.816H90.9898L91.5658 26.856L90.9898 26.76L89.4538 27.336L89.3578 27.528L90.6058 27.816ZM124.494 27.336L126.894 30.792V30.504L124.686 27.336H124.494ZM129.678 30.408L129.774 30.504L128.43 27.432V27.528L129.678 30.408ZM80.5258 32.232L78.9898 36.168L78.5098 32.52L79.6618 28.872L80.5258 32.232ZM105.102 30.888L105.39 29.928H105.198L103.566 30.024L104.142 32.232H105.486L105.102 30.888ZM92.9098 32.808L92.4298 33.576L94.5418 32.808L94.6378 32.232L92.9098 32.808ZM80.8138 36.168L78.9898 36.36L80.5258 32.424L80.8138 36.168ZM105.582 32.52L105.198 32.904L105.582 32.616V32.52ZM90.7018 35.112L89.7418 33.384L89.8378 32.904L88.3978 33.48L88.4938 33.576L89.4538 35.112L92.7178 35.88L93.0058 35.688L90.7018 35.112ZM127.086 34.728L127.95 35.688L128.238 35.592L127.086 34.344V34.728ZM94.5418 36.84L92.6218 37.224L91.4698 38.184L92.7178 38.664L94.2538 38.376L94.5418 36.84ZM93.7738 40.968V40.872L93.2938 40.296L93.3898 40.968L93.4858 41.16L94.3498 41.544L93.8698 40.968H93.7738ZM93.1978 42.312L93.5818 43.272L93.2938 41.256L93.1018 41.16L92.1418 41.352L92.3338 43.56L93.1978 42.312ZM92.5258 45.384L93.6778 44.712L93.5818 44.04L92.5258 44.616V45.384ZM102.03 49.992L103.086 47.208L100.974 47.496L100.878 47.688L102.03 49.992ZM88.4938 49.512L90.7018 50.088L90.7978 49.992L89.2618 49.608L87.9178 47.976L87.6298 48.456L88.4938 49.512ZM82.4458 50.184H83.0218L81.4858 49.704L81.6778 49.992L82.4458 50.184ZM101.838 53.544L102.414 55.464L102.126 58.824L103.374 60.936V60.84L102.222 58.92L102.606 55.368L102.126 53.928L99.5338 49.992L98.3818 50.952L97.1338 50.76L99.0538 53.736L99.2458 53.544L99.3418 53.928L101.838 53.544ZM90.2218 52.296L90.3178 52.488L93.8698 53.736L93.3898 53.16L89.8378 51.912L89.6458 52.2L90.2218 52.392V52.296ZM85.4218 62.76L87.0538 64.68L90.8938 65.64L87.6298 69.096L87.5338 70.152L88.5898 70.344L88.7818 68.328L91.3738 65.64L91.6618 64.968L91.5658 64.872H90.3178V64.2L89.1658 63.912L87.5338 61.992L88.3978 59.112L87.4378 57L90.7978 56.328L90.4138 56.136L90.3178 53.832L89.6458 52.2L89.8378 56.04L85.7098 56.904L82.8298 56.808L82.6378 57.288L85.7098 57.384V57L86.6698 59.112L85.5178 58.536V58.824L86.6698 59.4L85.8058 62.28L85.5178 58.824V58.92L81.9658 58.728L82.0618 59.112L85.1338 59.304L85.4218 62.76ZM84.4618 53.256L83.2138 52.872L82.9258 53.16L84.2698 53.64L84.4618 53.256ZM79.2778 53.736L78.7978 55.08L79.6618 56.904L80.3338 55.944L79.2778 53.736ZM95.7898 56.04L97.8058 55.56L99.4377 56.04L99.3418 55.944L97.8058 55.464L97.7098 55.56L97.6138 55.464L96.8458 55.176L97.2298 54.888L96.5578 54.024H95.6938L96.8458 55.464L93.6778 56.232L93.1978 56.808H93.2938L92.5258 58.92L92.8138 59.496L93.4858 59.112L93.3898 58.824L95.7898 56.04ZM129.39 65.544L131.214 68.424L131.982 66.984L130.158 64.2L126.894 62.568L124.59 62.472L126.318 59.976L124.974 57L128.238 57.768L128.43 56.04L127.854 55.944L127.758 57.192L124.494 56.424L125.838 59.4L124.11 61.896L123.054 62.184L123.726 63.912L123.822 63.816L126.126 63.912L129.39 65.544ZM78.6058 58.728L78.5098 60.168H79.0858L78.6058 58.728ZM111.246 67.848L113.646 68.52L115.47 64.104L117.966 64.584L117.198 66.696L118.734 66.888L120.75 64.68L121.038 65.448H121.422L121.134 64.68L121.422 64.584H121.23L122.094 62.568L121.422 62.76L119.982 59.304L118.638 62.664L116.142 62.184L114.318 66.6L111.918 65.928L108.27 66.408H106.638L106.35 67.944H108.558L108.75 68.136L111.246 67.848ZM93.3898 62.376L93.0058 64.584L94.2538 63.24L94.3498 62.376L95.1178 62.184L93.7738 59.592L93.3898 60.456L94.3498 62.28L92.3338 61.32L91.5658 61.608L93.3898 62.376ZM132.942 61.32L134.094 61.512L134.19 60.36L131.598 59.976L133.902 63.24L133.23 64.584L135.054 64.2L134.286 63.144L133.902 63.24L133.998 62.664L132.942 61.32ZM79.6618 61.896L79.5658 61.608L79.4698 62.28L82.3498 62.76L82.2538 62.28L79.6618 61.896ZM103.758 63.816L106.35 65.064L106.542 63.72L103.662 62.376L103.758 63.816ZM137.07 62.664L135.438 62.952L135.342 64.2L136.302 64.008L137.07 62.664ZM96.4618 64.392L96.6538 64.776L96.4618 64.2L96.3658 64.296L96.4618 64.392ZM124.878 73.512L124.206 76.104L124.686 75.912L125.262 73.512L123.246 70.056L124.782 66.984L121.998 66.888V66.792L121.902 66.888L124.398 66.984L122.862 70.056L124.878 73.512ZM98.7657 73.8L98.6698 73.896L99.5338 75.144L99.6298 73.8L99.3418 69.672L98.4778 68.232L98.7657 71.88L96.9418 71.496L94.1578 71.208L92.1418 71.496L92.9098 73.896L95.9818 73.512L98.0938 73.704L98.3818 73.416L98.5738 73.8H98.7657ZM117.678 76.2L118.638 79.464L118.734 79.368L117.774 76.2L117.39 72.456L117.294 72.552L117.678 76.2ZM111.438 75.432L112.302 75.816L113.838 74.472L113.55 73.512L111.438 75.432ZM100.398 76.2H102.03L102.51 75.816H100.014H99.7258H99.4377L97.0378 75.72L96.7498 76.008L100.398 76.2ZM101.07 78.216L103.47 78.504L103.374 78.216L101.358 78.024L101.07 78.216ZM107.694 79.176L108.078 79.08L107.982 78.888L106.638 79.08L105.198 80.424L105.486 81.096H105.678L107.694 79.176ZM94.1578 53.832H94.4458L95.5018 51.432L95.5978 53.832L95.5018 51.048L96.0778 50.568L93.7738 50.184L96.6538 47.208L97.2298 43.944L96.6538 42.312L99.0538 41.256L101.358 41.736L103.758 38.568L105.486 39.336V41.448L105.39 45.48V47.496V49.416L105.486 53.448L104.91 53.544L102.606 53.832V55.368V55.272L103.374 59.304V59.688L105.39 60.456L109.23 61.32L111.726 61.032L114.222 59.88L115.47 58.248L116.43 56.136L117.678 53.928L119.982 53.352H127.086L128.046 54.024L127.95 55.272H128.43L128.526 54.6L131.214 55.08L131.118 53.928H140.046L142.158 56.04L142.062 58.344L141.582 56.904L141.774 60.264L141.294 62.184L139.95 65.928L137.742 67.176L135.246 66.024L134.478 67.368L136.974 68.52L139.278 67.272L138.318 69L136.014 72.168L134.574 73.608L133.134 74.856L129.87 77.064L129.006 73.416L128.718 73.608L129.486 77.064L127.758 78.024L124.11 79.56L123.054 78.216L121.518 75.336V75.432L122.958 78.216L124.014 79.56L120.27 80.616L116.43 81.384L115.278 81.576L115.086 81.672L113.07 81.864L114.894 81.384L115.278 81.192L112.59 81.768V81.864L108.654 81.96L108.846 81.672H108.366L106.446 81.48H105.39L104.43 81.672L102.51 81.384L102.414 81.192L101.646 81.096H100.59L96.8458 80.136L95.0218 79.56L93.1978 78.888L89.7418 77.064L86.6698 74.856L87.1498 73.704L85.7098 70.728L83.9818 70.344L85.9978 74.472L85.5178 75.624L82.8298 72.84L81.6778 71.304L80.6218 69.672L79.7578 67.944L79.0858 66.12L79.1818 63.336L78.4138 60.648L78.3178 61.992L77.7418 58.248L77.6458 56.328L78.4138 54.12L78.5098 54.216L78.4138 53.736V49.416L79.8538 48.264H79.7578L83.1178 47.496L86.1898 46.632L87.5338 44.712L86.2858 44.424L85.4218 45.672L83.7898 43.848H83.6938L82.9258 43.944L85.4218 46.728L82.3498 47.592L79.8538 48.168L79.7578 48.264L78.3178 49.416V47.304V45.192V43.08L78.4138 39.528L77.6458 39.432L77.8378 37.128L78.5098 33.288L78.9898 36.936L80.2378 39.048L81.3898 39.24L79.7578 36.36L81.1018 36.264L80.8138 35.976L80.5258 32.232L83.6938 33.672L84.8458 32.712L85.0378 33.768L86.5738 33.192L85.0378 34.344L85.2298 36.36L86.8618 37.992L85.1338 38.28V38.376V39.24L88.5898 38.664L87.7258 41.832L88.2057 41.928L89.6458 41.64L90.5098 38.76L88.5898 38.184L86.9578 36.552L86.5738 32.904L87.1498 33.096L86.0938 30.12L88.0138 30.888L86.8618 28.008L86.7657 27.816H86.5738L84.9418 27.432L86.2858 30.888L84.3658 30.12L84.6538 27.336L82.6378 26.952L82.4458 29.16L83.1178 30.12L82.5418 29.928L83.6938 33.192L80.5258 31.752L79.6618 28.392L80.6218 28.776L81.1018 28.104L80.6218 27.528L81.3898 25.416L82.1578 24.36L82.0618 24.072L83.3098 22.536L84.5578 21.192L87.5338 18.696L85.2298 22.248L88.4938 22.344H88.3978L85.5178 22.248L87.6298 19.08L87.5338 18.696L89.1658 17.64L90.8938 16.776L94.3498 15.24L94.6378 15.336L92.1418 18.888L90.1258 19.368L92.3338 21.576L92.2378 21.288L90.4138 19.368L92.1418 18.984V18.888L95.5978 17.928H95.9818L95.0218 15.336L95.8858 17.64L92.4298 18.6L94.9258 15.048L95.0218 15.144L96.6538 14.664L98.4778 14.088L102.318 13.416L103.95 13.128H107.502L105.966 15.048L104.142 13.32L102.99 15.24L104.238 18.024H105.294L108.462 19.272L106.734 15.24L107.886 13.128L109.518 14.664L110.574 13.224L112.206 12.936L113.742 13.224H114.318L114.222 13.32L116.142 13.704L116.718 14.28L118.926 14.376L119.79 13.8L121.71 14.28L123.63 14.76L123.726 15.432H123.822L123.726 15.048L126.03 15.912L127.47 16.392L129.198 17.256L130.35 17.928L130.638 17.352L131.886 18.792L132.366 19.176L132.558 16.776L134.67 18.792L134.19 18.024L136.974 20.712L138.894 23.4L139.086 23.688L139.278 23.976H139.182L139.758 25.128L140.526 26.952L141.486 30.792L141.678 32.712L141.774 34.632L139.662 36.744H125.55L124.878 36.936L125.55 39.336L128.334 38.568L126.03 39.528H122.478L121.422 36.456L123.342 36.648L122.862 34.728V34.824L119.406 34.536L119.022 33.192L118.254 33.288L119.118 36.168H119.406L120.462 39.24L118.062 38.568L117.102 36.744H116.718L115.662 34.248V34.536L116.91 37.704L115.854 35.4L115.662 34.536L112.11 32.712L109.71 32.52L105.966 33.288L106.158 35.304L106.638 35.4L105.966 39.336L105.294 35.208L104.814 35.112L104.43 33.864L103.278 35.208L102.99 32.424H102.702L101.07 33.576H101.55L102.126 35.112L102.798 39.336L101.07 38.568L100.686 37.512L98.4778 40.392L96.1738 39.912L95.2138 40.392L94.9258 41.928L95.7898 42.312L94.4458 44.328L95.1178 43.944L94.5418 47.208L91.6618 50.184L91.1818 50.088L91.3738 50.28L95.4058 50.952L94.0618 53.832H94.1578ZM96.9418 35.112L97.6138 35.016L98.1898 33.576H97.7098L97.5178 33.48L96.9418 35.112ZM166.676 11.208L169.94 11.688L171.668 13.896L167.444 13.32L166.292 13.032L166.676 11.208ZM159.86 12.36H161.684L161.876 13.896L159.86 12.36ZM167.156 71.016V70.824L166.964 71.112H167.06L167.828 73.896L165.524 73.128L165.044 73.8L163.412 76.776H160.436L159.188 78.6L158.036 79.08H152.372L150.548 78.312L149.78 76.488V72.648L149.588 72.264V62.856L149.78 62.952V58.536L150.644 58.248L153.14 58.152L153.044 57.48H152.18L151.316 57.768V38.952L149.78 39.144V35.4L150.836 35.016L149.972 34.728L148.724 35.208V33.288L148.916 31.464L150.452 31.56V30.408H149.972L149.876 27.72L149.012 27.336V25.416L149.78 26.76V26.568L151.316 27.432L152.468 25.896L152.084 25.992L152.468 25.224L150.164 25.128V17.544L150.548 15.432V14.472L150.836 14.376L150.932 13.8V14.376L152.372 13.8H152.852V13.704L153.044 13.8H157.268L158.42 13.128L158.324 13.8H159.956L161.108 14.664H161.876V13.992V13.896L161.972 13.992H171.284L170.228 15.432H170.516L171.284 14.568L171.572 15.528H172.532L171.764 17.544L174.74 17.832L175.412 16.104L172.916 15.912L174.26 14.28H181.844H185.108V14.184L187.604 14.376H188.084L192.02 14.952L194.036 15.336L195.956 15.816L195.188 16.104L193.844 15.624L193.94 15.912L194.036 16.008L195.86 16.68L197.492 17.448L197.3 16.776L198.644 17.16L198.164 19.752L199.988 19.848L200.084 19.272L198.644 17.832L200.18 18.792L200.372 17.544L202.292 19.464V18.984L202.772 19.848L204.02 21.096H203.54L204.692 22.152L206.132 20.232L207.38 22.632L206.228 23.88V23.976L205.46 25.032H206.9L206.324 23.976L206.996 25.032H208.724L208.436 25.8L208.916 26.952L208.724 26.472L208.436 25.8L208.052 26.952L208.34 27.432L208.052 27.048V27.144L208.148 27.336L208.724 28.68L207.956 27.336L207.764 27.816L208.34 28.776H207.476L208.148 30.888L208.916 28.776L209.108 29.256L209.588 31.176L209.492 30.984L209.972 33.192L210.26 35.112L210.356 37.128L209.972 41.352L209.492 43.368L208.052 47.112L207.092 48.84L204.308 48.936L201.908 49.8L202.292 46.632L202.004 43.368L204.884 44.328L203.636 40.968L203.444 40.68L201.812 40.104L199.028 39.72L198.836 39.624L198.356 41.544L197.204 38.568L196.34 38.088L194.516 38.28L194.708 37.512L194.132 37.32L193.268 35.112L194.996 31.656L195.38 28.776L193.748 29.832L193.46 31.656L190.004 32.136L188.66 34.056L188.948 34.44L189.332 34.344L190.58 32.52L190.388 32.136L193.844 31.656L192.308 34.632L192.5 34.824L192.884 34.248L194.516 38.472L192.116 37.896L190.868 40.008L190.58 37.992L189.428 37.896L188.756 38.568L189.14 40.68L192.788 41.544L194.612 41.352L194.804 43.464L191.732 43.176L193.172 45.672L191.348 46.344L192.5 47.112L194.42 46.44L194.9 44.616L196.34 45.384L194.996 43.176L196.82 43.368L196.532 42.696L196.34 40.584L199.028 42.216L201.812 42.6L202.1 45.864L201.716 49.032L201.236 48.936V49.128L200.948 50.088L202.964 51.72L205.556 52.008L202.868 49.8L205.268 48.936L208.052 48.84L205.652 52.008L205.94 52.104L202.868 54.792L200.756 55.272L200.852 55.56H198.068H197.492H198.452L198.26 56.616L198.452 55.56L200.852 58.44L200.276 58.248L200.852 59.304H201.044L202.772 60.072L203.54 62.376H204.788L204.308 63.336L204.596 63.24L206.132 66.216L207.284 65.256L206.612 63.24L207.572 64.968L207.764 64.872L208.052 65.928L208.436 66.6H208.244L207.572 68.904L210.932 75.048L212.084 77.832L209.972 79.944H208.244L208.148 79.464L206.42 79.944L207.668 76.872L206.132 76.68L205.556 78.12L204.596 76.584H204.212L203.924 76.104H203.54L203.828 75.912L202.868 74.472L203.54 76.104L205.268 78.696L207.476 82.056H196.724L195.668 80.616H195.188L194.708 80.424L195.572 80.52L194.036 78.504L197.78 79.656L196.436 77.064L197.588 77.256L197.3 75.72L196.724 75.528L197.012 76.008L193.268 75.912L194.132 77.064L192.98 76.968L193.46 77.448L189.908 78.12L190.964 76.872H190.004L190.58 77.064H188.756L186.26 76.392L183.86 72.84L183.284 71.4L183.188 71.784L180.98 66.696L183.764 65.928H183.86L185.492 66.312V66.216L184.436 65.928L187.124 63.048L188.756 63.624L187.892 62.184L187.604 61.704L187.124 57.576L188.372 57.48L188.084 55.368L185.588 55.464L186.068 59.592L183.38 59.016L182.42 57.576L182.708 58.344L184.532 61.128L184.82 61.32L186.26 61.704L186.74 60.936L188.468 63.24L185.972 62.28L185.876 62.472L186.452 63.048L183.764 65.928L182.42 64.584L181.94 65.256L182.612 65.928L181.076 66.312L180.788 66.696L180.692 66.504L179.732 66.696L180.404 65.832L178.58 61.704L179.444 60.36L175.22 60.072L174.164 58.824H170.9L169.652 55.368L168.5 57.096L166.196 57.768L163.7 57.384L165.332 55.752L166.484 54.408L169.556 55.272L169.364 54.984L167.348 54.408L167.06 52.584L165.332 51.432L164.852 51.624L165.14 54.408L163.988 55.752L162.74 57L163.124 57.384L165.62 57.768L164.756 59.208L164.852 60.072L163.892 60.552L163.508 61.224L160.34 61.32L160.916 62.376L163.796 62.28L166.1 61.128L165.908 58.824L168.212 58.152L169.46 56.328L170.804 59.88H174.068L173.012 62.856L173.492 64.104L175.028 63.912L177.62 64.68V72.072L177.524 72.264L177.62 72.552H177.428L177.332 72.744L177.14 72.456L175.796 72.36V74.76L175.604 72.264H175.316L175.508 71.976V71.784L175.796 71.112V71.592L176.084 71.208L175.892 70.92L172.82 68.04L170.708 66.888L171.86 64.296H172.052L171.188 64.008L168.02 64.392L167.348 65.928L167.828 66.12V65.928L168.02 66.312L168.98 66.792L172.052 69.672L169.652 69.096L170.228 70.152L167.732 69.768L167.828 69.96L167.252 70.344L167.156 71.016ZM152.468 14.376L153.716 16.392L154.292 16.104L153.428 14.664L152.468 14.376ZM189.908 17.352L190.964 17.448L190.868 17.352L190.196 17.256L190.1 15.624L189.62 14.856L187.7 14.664L189.332 18.024L189.716 17.928L189.908 17.352ZM167.06 17.064L167.156 19.08L167.636 20.616L167.54 17.064L171.764 17.64L169.844 19.752H172.34L171.764 17.544L171.188 16.872H169.268L170.324 15.72L170.132 15.528L170.036 15.624L167.54 15.24L167.156 16.776L164.372 15.72L166.772 15.144L164.084 15.816L166.388 16.68L166.004 16.776L166.292 16.872L166.388 16.776L166.484 16.872L167.06 17.064ZM182.708 18.12L182.516 18.408L183.38 19.176L184.148 16.2L183.668 15.816L182.708 18.12ZM159.764 16.584L160.244 17.448L161.78 17.64L163.124 17.256L163.22 16.872L159.764 16.584ZM185.684 18.6L185.972 20.136L186.74 20.328L186.26 17.928V18.024L184.724 16.584L185.684 18.6ZM160.436 21.576L160.916 21L161.108 20.328L165.044 19.656L165.428 24.168L169.364 23.976L169.748 19.944L170.612 23.976L172.34 19.944L174.068 23.304L172.34 26.28L171.476 29.64V29.736L172.34 26.472L176.084 27.432L176.372 26.856L174.164 26.28L175.892 23.304L176.756 21.384L179.156 20.424L179.828 19.272V19.176L179.06 18.696L178.004 18.504L176.468 18.312L178.484 19.848L174.932 21.288L174.068 23.208L172.34 19.848V19.752L170.612 23.784L169.748 19.848V19.944L169.364 23.976L165.428 24.168L165.044 19.656L166.1 17.256L166.004 16.776L164.948 17.064L163.796 19.656L160.724 20.136L160.436 21L159.284 19.848L158.9 19.944L156.788 22.632L160.436 21.576ZM189.044 18.12L189.236 18.024L186.548 16.968L186.452 17.16L188.948 18.216L189.044 18.12ZM196.34 17.16L196.916 19.656L197.972 19.752L197.492 17.544L196.34 17.16ZM188.66 23.976L187.796 25.224L187.892 25.32L188.852 23.976L189.812 25.032H190.964L191.828 23.976H190.292L191.156 22.152L190.292 21.384L191.828 20.424V20.328L191.348 19.656L192.596 18.216L192.308 18.312L191.06 19.752L190.388 20.136L189.908 21.384L188.66 23.976ZM192.98 25.416L192.884 29.256L192.98 29.352L193.364 29.16V25.416L196.148 23.304H196.34L196.628 22.152L194.9 22.248L194.996 20.712L194.228 20.616L194.036 20.712L193.94 22.632L194.42 23.304L193.844 23.4L194.324 23.88L191.828 23.976V25.032H192.212L191.252 26.28L192.98 25.416ZM202.292 21.672L202.484 24.648L202.772 25.512L203.732 25.704L203.444 24.84L202.388 22.728L202.292 21.096V21V21.672ZM182.612 22.632L182.324 23.016L184.34 23.496V23.208L183.476 23.016L183.092 22.056L182.42 22.44L182.612 22.632ZM154.772 30.696L154.676 28.104L156.116 28.296L155.06 25.512L157.748 26.088V25.608L156.788 25.416L157.556 24.072L156.404 23.208L155.444 24.744L154.388 23.496L153.812 24.744L155.06 24.36L154.676 28.104L151.316 27.432L151.988 28.872L153.62 29.16L153.716 31.752L155.444 34.056L157.172 33.48L156.404 32.52L154.004 31.752L154.964 30.6L154.868 30.504L154.772 30.696ZM187.124 23.88H187.028L187.124 24.072V23.88ZM178.964 25.608L180.02 28.776L180.884 27.432L184.436 26.664L184.34 25.992L184.052 26.376L182.804 24.072L182.996 24.648L181.46 24.36L180.884 25.224V25.32L180.788 25.416L179.252 24.168L178.676 25.416L178.964 25.608ZM159.284 25.128L160.532 26.184L161.492 25.896L161.78 25.224L161.396 24.552L159.284 25.128ZM180.116 28.584L179.06 25.416L180.98 27.24L180.116 28.584ZM160.052 29.448L160.82 27.432L160.436 26.184H160.532L157.94 25.608L158.132 26.184L158.9 26.28L159.956 29.832L161.396 29.448L161.3 29.16L160.052 29.448ZM198.74 25.704H198.26L198.74 26.76H199.604L198.74 25.704ZM190.676 27.528L191.348 26.664L191.252 26.28L190.58 27.24L190.676 27.528ZM187.892 29.256L189.62 29.64V29.352L189.428 29.256L189.716 28.872L189.812 27.912L188.852 29.256L187.796 26.472L186.548 26.76L186.164 30.024L187.892 29.256ZM201.62 28.776L202.1 29.544L202.004 28.008L200.852 27.816L201.62 28.776ZM203.252 31.464L203.348 31.752L205.076 31.848L205.172 32.136L205.652 31.56L206.42 34.344L205.844 34.248L206.036 34.632L208.724 35.784L207.668 32.52L207.86 31.752L205.076 30.6L204.308 27.816L202.388 30.024L203.252 31.464ZM161.972 32.712L163.508 29.16L164.564 32.712L165.812 28.296L165.14 28.584L164.564 30.6L164.084 28.872L163.508 29.064L163.316 28.584L162.068 28.872L161.876 29.256L162.74 29.064L161.78 31.272H161.972L161.876 33.096L161.972 34.344L162.836 33.864L162.932 32.712H161.972ZM155.828 29.448L156.596 29.544L156.308 28.776L154.964 30.408H155.06L155.828 29.448ZM198.26 31.272L199.796 32.136L200.756 31.944L199.604 29.064L199.124 28.776L198.26 31.272ZM191.732 30.12L192.116 29.832L190.676 29.544L190.196 29.736L191.732 30.12ZM151.7 31.656L151.124 30.408H150.548V31.56L151.7 31.656ZM183.188 41.16L184.724 39.336L187.796 37.8V37.032L186.452 35.304L184.724 36.168L185.204 33.096L184.724 32.232H184.628L184.724 32.616L184.436 32.232H183.668L182.036 31.656V31.752L179.06 31.848H177.332L175.22 31.752L173.78 35.208V38.28L173.684 38.952L177.332 39.624L175.892 41.352L177.332 43.56L178.676 41.832H182.132L183.956 41.352L185.684 40.392L186.164 40.584L186.644 40.2L185.684 39.816L183.188 41.16ZM171.956 33.96L172.628 34.728L173.396 34.824L171.956 33.192V32.904L171.38 33.48L171.764 34.152L171.956 33.96ZM188.468 34.344L188.372 34.248L187.7 33.096L186.644 33.192L187.796 34.536L188.564 34.44L188.468 34.344ZM167.924 38.76L167.252 37.896L168.212 40.584L169.46 40.008L167.924 39.624L169.748 37.032L171.956 37.128L171.092 35.592L170.42 35.496L170.804 35.112L170.516 34.536L169.748 34.44L169.556 33.96L168.308 34.056L165.716 34.632L167.06 34.824L166.58 36.456L169.748 36.168L167.924 38.76ZM165.716 38.472L164.468 34.92L164.276 34.728L162.068 34.44L163.316 35.688L164.372 35.112L163.604 36.072L164.372 36.84L162.164 38.088V37.992L162.068 38.088V38.664L161.204 41.16L161.972 41.544L162.26 40.776L162.068 40.584H162.356L162.548 40.008L162.932 40.776L165.716 41.352L165.044 44.136L165.236 44.424L166.004 44.136L166.388 42.216L165.716 42.504L166.004 40.296L164.564 40.008L166.676 37.224L166.484 36.936L166.004 36.456L165.716 38.472ZM205.364 38.184L206.996 40.968L206.708 38.664L206.324 37.8L205.172 35.688L202.196 34.824L203.348 37.608L205.364 38.184ZM154.964 35.784L156.5 37.608L156.404 36.936L154.964 35.208L153.428 35.688L154.292 35.976L152.276 38.856L153.812 38.664L154.388 39.144L156.404 38.952L155.348 40.2L155.636 40.488L156.692 38.76L156.596 38.28L152.948 38.664L154.964 35.784ZM173.396 40.584L174.548 40.872L173.588 39.336L173.396 40.584ZM169.268 49.992H170.036L169.94 49.32L167.636 46.824L171.86 45.96L169.652 43.656L170.324 40.2L169.94 40.104L169.268 43.656L167.828 40.776L167.924 40.68L167.156 40.584L167.924 41.544L167.252 41.832L168.212 43.656L166.868 44.136L165.812 45.768L166.004 46.824L164.756 46.92L164.468 47.4L165.524 48.84L165.332 49.128L166.868 49.32L167.444 51.72L169.172 52.872L169.748 51.048L169.268 49.992ZM156.404 43.176L160.34 43.944L159.38 42.504L159.188 42.696L156.98 42.216L156.404 43.176ZM180.788 48.456L181.556 48.648L181.652 48.552L181.46 48.36L181.364 48.456L181.268 48.168L180.5 47.208L181.076 46.248L180.98 45.576L181.844 43.944L180.596 42.888L179.156 45.576L179.54 48.456H179.348L180.5 49.8L180.788 48.456ZM168.5 43.656L170.708 45.96L166.484 46.824L168.5 43.656ZM158.324 48.84L157.652 49.224L157.172 50.088L157.556 49.896V49.608L157.94 49.704L159.38 48.936L158.996 48.84L162.068 46.248L163.028 46.632L162.836 46.344L164.372 46.152L164.948 45.384V44.808L164.852 45.096L164.276 44.136L163.796 43.944L162.836 45.192L160.628 44.424L160.532 44.232L159.956 44.808L160.916 46.248H160.628L158.324 48.168V48.84ZM164.948 44.52L165.14 44.424H165.044L164.948 44.52ZM186.644 45.96L186.452 46.92L188.18 46.728L187.7 45.576L186.548 45.672L186.644 45.96ZM183.956 45.576L182.996 47.592L184.244 51.144L185.012 48.36L183.956 45.576ZM197.876 46.536V46.44L197.684 46.344L196.052 47.592L195.86 48.072L196.82 49.704L197.012 49.128L199.316 49.512L198.932 48.84L199.316 48.552L198.068 48.36L197.876 46.536ZM190.964 53.352L193.844 50.664L194.9 53.448L194.132 55.272L195.092 55.464L196.052 55.56H197.396H197.204L196.244 55.464L196.82 53.928L196.244 51.624L196.436 50.856L195.38 51.24L195.092 52.392L194.036 49.608L194.996 49.224L193.94 48.456L193.844 48.552V48.456L193.46 48.168L190.388 47.976L190.484 46.632L189.62 46.92L189.716 47.208L189.524 48.744L189.908 49.416L193.076 49.608L190.676 51.912L190.964 53.352ZM157.748 56.52L157.556 54.984L156.596 54.696L154.58 54.408L153.524 52.968L153.716 49.512L156.596 47.304L157.46 46.824V46.632L156.116 47.304L153.236 49.512L153.044 52.968L154.1 54.408L154.292 55.464H154.58L157.748 56.52ZM166.772 46.824L169.076 49.32L165.716 48.84L166.772 46.824ZM177.14 52.488L178.58 54.216L177.716 54.408L178.58 58.536L177.524 58.632V58.728L179.636 58.536L178.772 54.216L180.116 52.968L180.02 52.68L179.828 52.488L180.404 50.088L178.196 49.512L178.964 48.456L178.1 48.552L177.14 52.488ZM162.164 50.76L162.068 51.72L163.124 49.896L159.572 49.032L159.38 50.088L162.164 50.76ZM171.764 52.776L174.164 49.992H173.012L171.092 52.104L171.38 52.776L170.708 52.872L173.012 54.312L175.892 54.6L176.276 54.504L174.164 54.312L171.764 52.776ZM199.892 51.624L200.564 54.312L202.196 51.912L199.892 51.624ZM195.668 57.576L194.612 56.04L194.324 56.52L194.516 57.48L197.012 58.248L197.108 57.288L196.052 56.04L195.668 57.576ZM199.508 58.152L199.604 58.056L199.316 57.96L199.508 58.152ZM194.996 60.456L194.612 59.016L193.46 62.088L195.38 61.512L195.86 60.264L194.996 60.456ZM197.492 65.064L199.028 62.664L199.22 65.448L201.044 61.992L198.356 62.088L195.86 62.952L194.42 65.256L197.492 65.064ZM204.404 65.064L204.02 63.816L203.252 65.256L203.828 67.176L204.404 65.064ZM161.78 66.12L162.068 67.176L162.356 65.544L161.972 64.872L161.78 66.12ZM200.18 67.464L201.716 65.16L199.892 65.832L199.316 66.6L199.412 66.792L199.22 66.888L197.684 69.096L198.356 69.384V68.904L198.452 69.48L198.74 69.576L199.7 71.016L200.66 70.728H204.404L206.324 71.208L206.9 72.264V72.168L205.268 69.096L203.348 68.616L203.732 67.464H200.18ZM191.06 69.768L191.924 66.12L192.788 65.832V65.448L190.1 67.176L189.62 67.464L189.044 70.152L190.676 70.44L192.98 69.288L192.116 72.936L194.612 71.688L195.668 73.512L197.492 73.608L197.876 73.416L197.012 71.88L196.724 71.208L196.34 70.632H196.436L195.956 69.672L195.764 69.768L195.86 69.48L195.668 69.192L194.708 68.808L192.98 69.288L194.036 68.616L193.556 68.52L191.06 69.768ZM186.836 66.696L187.22 66.6L185.588 66.216V66.408L186.836 66.696ZM183.476 69.672L183.284 71.208L184.82 72.168L184.916 72.072L184.82 71.784L185.108 69.768H184.916L183.86 66.312L183.476 69.672ZM166.868 66.984L167.06 67.752L167.444 67.464L167.156 66.408L166.868 66.984ZM196.244 68.424L196.34 68.232L195.86 67.944L196.052 68.328L196.244 68.424ZM156.98 69.48L159.188 68.328L156.788 69.576L157.94 71.4L158.228 71.304L156.98 69.48ZM158.228 73.224L159.38 70.056L163.028 71.208L162.26 72.936L162.932 72.744L163.124 72.456L163.7 71.112H164.084L164.18 71.016H163.028L162.548 69.384L159.284 68.424L158.228 71.4L157.172 74.76L157.844 76.008L158.612 74.76L158.228 73.224ZM160.532 80.52L161.78 78.696H164.756V78.888L166.676 75.432L168.02 73.8L171.092 74.184L172.34 75.528L173.108 77.832L173.588 76.296L172.916 74.472H173.108L171.764 72.072L169.172 73.128L170.42 71.016L170.228 70.824L170.612 70.632L170.996 69.96L171.284 70.344L173.492 69.48L172.436 70.824L175.028 71.496L173.3 74.472L175.22 74.76L174.164 78.312L173.78 77.064V79.176L173.012 81L172.34 81.288L172.724 81.768L170.132 82.056H162.644L163.892 81.768L164.084 80.808L163.124 81H159.38L160.532 80.52ZM167.06 70.824V70.536L166.868 70.728L167.06 70.824ZM199.796 72.936L199.22 72.072L199.028 73.128L199.796 72.936ZM155.06 72.264L155.924 74.184H156.212L155.252 72.168L155.06 72.264ZM206.036 74.184H205.556H206.036ZM171.476 80.04L172.052 80.808L172.628 79.464L171.668 79.56L171.476 80.04ZM209.108 82.248L209.204 82.728H207.38L209.108 82.248Z" fill="#101828"/>
    <path d="M9.19531 105L7.78906 101.375H3.21094L1.8125 105H0.46875L4.9375 93.5312H6.13281L10.5703 105H9.19531ZM7.39062 100.195L6.05469 96.5938C6.02344 96.5 5.97135 96.3464 5.89844 96.1328C5.83073 95.9193 5.76042 95.6979 5.6875 95.4688C5.61458 95.2396 5.55469 95.0547 5.50781 94.9141C5.45573 95.1276 5.39844 95.3411 5.33594 95.5547C5.27865 95.763 5.22135 95.9583 5.16406 96.1406C5.10677 96.3177 5.05729 96.4688 5.01562 96.5938L3.65625 100.195H7.39062ZM12.1562 93.5781H15.3906C16.8177 93.5781 17.8906 93.7917 18.6094 94.2188C19.3281 94.6458 19.6875 95.3724 19.6875 96.3984C19.6875 96.8411 19.6016 97.2396 19.4297 97.5938C19.263 97.9427 19.0182 98.2318 18.6953 98.4609C18.3724 98.6901 17.974 98.849 17.5 98.9375V99.0156C18 99.0938 18.4427 99.237 18.8281 99.4453C19.2135 99.6536 19.5156 99.9453 19.7344 100.32C19.9531 100.695 20.0625 101.172 20.0625 101.75C20.0625 102.453 19.8984 103.047 19.5703 103.531C19.2474 104.016 18.7891 104.383 18.1953 104.633C17.6016 104.878 16.8984 105 16.0859 105H12.1562V93.5781ZM13.4844 98.4766H15.6719C16.6667 98.4766 17.3542 98.3125 17.7344 97.9844C18.1198 97.6562 18.3125 97.1771 18.3125 96.5469C18.3125 95.8958 18.0833 95.4271 17.625 95.1406C17.1719 94.8542 16.4479 94.7109 15.4531 94.7109H13.4844V98.4766ZM13.4844 99.5938V103.867H15.8594C16.875 103.867 17.5938 103.669 18.0156 103.273C18.4375 102.872 18.6484 102.333 18.6484 101.656C18.6484 101.224 18.5521 100.854 18.3594 100.547C18.1719 100.24 17.8646 100.005 17.4375 99.8438C17.0156 99.6771 16.4505 99.5938 15.7422 99.5938H13.4844ZM29.6641 105L28.2578 101.375H23.6797L22.2812 105H20.9375L25.4062 93.5312H26.6016L31.0391 105H29.6641ZM27.8594 100.195L26.5234 96.5938C26.4922 96.5 26.4401 96.3464 26.3672 96.1328C26.2995 95.9193 26.2292 95.6979 26.1562 95.4688C26.0833 95.2396 26.0234 95.0547 25.9766 94.9141C25.9245 95.1276 25.8672 95.3411 25.8047 95.5547C25.7474 95.763 25.6901 95.9583 25.6328 96.1406C25.5755 96.3177 25.526 96.4688 25.4844 96.5938L24.125 100.195H27.8594ZM41.5547 105H40.0234L33.7969 95.4062H33.7344C33.75 95.6615 33.7682 95.9531 33.7891 96.2812C33.8099 96.6042 33.8255 96.9505 33.8359 97.3203C33.8516 97.6849 33.8594 98.0573 33.8594 98.4375V105H32.625V93.5781H34.1484L40.3516 103.141H40.4062C40.3958 102.958 40.3828 102.701 40.3672 102.367C40.3516 102.029 40.3359 101.667 40.3203 101.281C40.3099 100.891 40.3047 100.529 40.3047 100.195V93.5781H41.5547V105ZM53.7422 99.1797C53.7422 100.466 53.5078 101.542 53.0391 102.406C52.5703 103.266 51.8906 103.914 51 104.352C50.1146 104.784 49.0391 105 47.7734 105H44.6719V93.5781H48.1172C49.2786 93.5781 50.2786 93.7917 51.1172 94.2188C51.9557 94.6406 52.6016 95.2682 53.0547 96.1016C53.513 96.9297 53.7422 97.9557 53.7422 99.1797ZM52.3438 99.2266C52.3438 98.2005 52.1719 97.3542 51.8281 96.6875C51.4896 96.0208 50.9896 95.526 50.3281 95.2031C49.6719 94.875 48.8672 94.7109 47.9141 94.7109H46V103.859H47.6172C49.1901 103.859 50.3698 103.471 51.1562 102.695C51.9479 101.919 52.3438 100.763 52.3438 99.2266ZM66.1875 99.2734C66.1875 100.154 66.0755 100.956 65.8516 101.68C65.6276 102.398 65.2943 103.018 64.8516 103.539C64.4141 104.055 63.8698 104.453 63.2188 104.734C62.5677 105.016 61.8125 105.156 60.9531 105.156C60.0677 105.156 59.2943 105.016 58.6328 104.734C57.9766 104.453 57.4297 104.052 56.9922 103.531C56.5599 103.01 56.2344 102.388 56.0156 101.664C55.8021 100.94 55.6953 100.138 55.6953 99.2578C55.6953 98.0911 55.888 97.0677 56.2734 96.1875C56.6589 95.3073 57.2422 94.6224 58.0234 94.1328C58.8099 93.6432 59.7943 93.3984 60.9766 93.3984C62.1068 93.3984 63.0573 93.6406 63.8281 94.125C64.6042 94.6094 65.1901 95.2917 65.5859 96.1719C65.987 97.0469 66.1875 98.0807 66.1875 99.2734ZM57.0938 99.2734C57.0938 100.242 57.2318 101.081 57.5078 101.789C57.7839 102.497 58.2057 103.044 58.7734 103.43C59.3464 103.815 60.0729 104.008 60.9531 104.008C61.8385 104.008 62.5625 103.815 63.125 103.43C63.6927 103.044 64.112 102.497 64.3828 101.789C64.6536 101.081 64.7891 100.242 64.7891 99.2734C64.7891 97.7995 64.4792 96.6484 63.8594 95.8203C63.2448 94.987 62.2839 94.5703 60.9766 94.5703C60.0911 94.5703 59.362 94.7604 58.7891 95.1406C58.2161 95.5208 57.7891 96.0625 57.5078 96.7656C57.2318 97.4635 57.0938 98.2995 57.0938 99.2734ZM77.6641 105H76.1328L69.9062 95.4062H69.8438C69.8594 95.6615 69.8776 95.9531 69.8984 96.2812C69.9193 96.6042 69.9349 96.9505 69.9453 97.3203C69.9609 97.6849 69.9688 98.0573 69.9688 98.4375V105H68.7344V93.5781H70.2578L76.4609 103.141H76.5156C76.5052 102.958 76.4922 102.701 76.4766 102.367C76.4609 102.029 76.4453 101.667 76.4297 101.281C76.4193 100.891 76.4141 100.529 76.4141 100.195V93.5781H77.6641V105ZM87.1406 105H80.7812V93.5781H87.1406V94.75H82.1094V98.4453H86.8516V99.6016H82.1094V103.828H87.1406V105ZM98.7422 99.1797C98.7422 100.466 98.5078 101.542 98.0391 102.406C97.5703 103.266 96.8906 103.914 96 104.352C95.1146 104.784 94.0391 105 92.7734 105H89.6719V93.5781H93.1172C94.2786 93.5781 95.2786 93.7917 96.1172 94.2188C96.9557 94.6406 97.6016 95.2682 98.0547 96.1016C98.513 96.9297 98.7422 97.9557 98.7422 99.1797ZM97.3438 99.2266C97.3438 98.2005 97.1719 97.3542 96.8281 96.6875C96.4896 96.0208 95.9896 95.526 95.3281 95.2031C94.6719 94.875 93.8672 94.7109 92.9141 94.7109H91V103.859H92.6172C94.1901 103.859 95.3698 103.471 96.1562 102.695C96.9479 101.919 97.3438 100.763 97.3438 99.2266ZM110.32 94.5859C109.69 94.5859 109.122 94.6953 108.617 94.9141C108.117 95.1276 107.69 95.4401 107.336 95.8516C106.987 96.2578 106.719 96.75 106.531 97.3281C106.344 97.9062 106.25 98.5573 106.25 99.2812C106.25 100.24 106.398 101.073 106.695 101.781C106.997 102.484 107.445 103.029 108.039 103.414C108.638 103.799 109.385 103.992 110.281 103.992C110.792 103.992 111.271 103.951 111.719 103.867C112.172 103.779 112.612 103.669 113.039 103.539V104.695C112.622 104.852 112.185 104.966 111.727 105.039C111.268 105.117 110.724 105.156 110.094 105.156C108.932 105.156 107.961 104.917 107.18 104.438C106.404 103.953 105.82 103.271 105.43 102.391C105.044 101.51 104.852 100.471 104.852 99.2734C104.852 98.4089 104.971 97.6198 105.211 96.9062C105.456 96.1875 105.81 95.5677 106.273 95.0469C106.742 94.526 107.315 94.125 107.992 93.8438C108.674 93.5573 109.456 93.4141 110.336 93.4141C110.914 93.4141 111.471 93.4714 112.008 93.5859C112.544 93.7005 113.029 93.8646 113.461 94.0781L112.93 95.2031C112.565 95.0365 112.164 94.8932 111.727 94.7734C111.294 94.6484 110.826 94.5859 110.32 94.5859ZM122.68 105L121.273 101.375H116.695L115.297 105H113.953L118.422 93.5312H119.617L124.055 105H122.68ZM120.875 100.195L119.539 96.5938C119.508 96.5 119.456 96.3464 119.383 96.1328C119.315 95.9193 119.245 95.6979 119.172 95.4688C119.099 95.2396 119.039 95.0547 118.992 94.9141C118.94 95.1276 118.883 95.3411 118.82 95.5547C118.763 95.763 118.706 95.9583 118.648 96.1406C118.591 96.3177 118.542 96.4688 118.5 96.5938L117.141 100.195H120.875ZM128.727 93.5781C129.664 93.5781 130.438 93.6953 131.047 93.9297C131.661 94.1589 132.12 94.5104 132.422 94.9844C132.724 95.4583 132.875 96.0625 132.875 96.7969C132.875 97.401 132.766 97.9062 132.547 98.3125C132.328 98.7135 132.042 99.0391 131.688 99.2891C131.333 99.5391 130.956 99.7318 130.555 99.8672L133.688 105H132.141L129.344 100.234H126.969V105H125.641V93.5781H128.727ZM128.648 94.7266H126.969V99.1094H128.781C129.714 99.1094 130.398 98.9193 130.836 98.5391C131.279 98.1589 131.5 97.599 131.5 96.8594C131.5 96.0833 131.266 95.5339 130.797 95.2109C130.333 94.888 129.617 94.7266 128.648 94.7266ZM139.023 105H137.688V94.75H134.094V93.5781H142.602V94.75H139.023V105ZM151.57 93.5781C152.508 93.5781 153.281 93.6953 153.891 93.9297C154.505 94.1589 154.964 94.5104 155.266 94.9844C155.568 95.4583 155.719 96.0625 155.719 96.7969C155.719 97.401 155.609 97.9062 155.391 98.3125C155.172 98.7135 154.885 99.0391 154.531 99.2891C154.177 99.5391 153.799 99.7318 153.398 99.8672L156.531 105H154.984L152.188 100.234H149.812V105H148.484V93.5781H151.57ZM151.492 94.7266H149.812V99.1094H151.625C152.557 99.1094 153.242 98.9193 153.68 98.5391C154.122 98.1589 154.344 97.599 154.344 96.8594C154.344 96.0833 154.109 95.5339 153.641 95.2109C153.177 94.888 152.461 94.7266 151.492 94.7266ZM164.719 105H158.359V93.5781H164.719V94.75H159.688V98.4453H164.43V99.6016H159.688V103.828H164.719V105ZM172.133 94.5859C171.503 94.5859 170.935 94.6953 170.43 94.9141C169.93 95.1276 169.503 95.4401 169.148 95.8516C168.799 96.2578 168.531 96.75 168.344 97.3281C168.156 97.9062 168.062 98.5573 168.062 99.2812C168.062 100.24 168.211 101.073 168.508 101.781C168.81 102.484 169.258 103.029 169.852 103.414C170.451 103.799 171.198 103.992 172.094 103.992C172.604 103.992 173.083 103.951 173.531 103.867C173.984 103.779 174.424 103.669 174.852 103.539V104.695C174.435 104.852 173.997 104.966 173.539 105.039C173.081 105.117 172.536 105.156 171.906 105.156C170.745 105.156 169.773 104.917 168.992 104.438C168.216 103.953 167.633 103.271 167.242 102.391C166.857 101.51 166.664 100.471 166.664 99.2734C166.664 98.4089 166.784 97.6198 167.023 96.9062C167.268 96.1875 167.622 95.5677 168.086 95.0469C168.555 94.526 169.128 94.125 169.805 93.8438C170.487 93.5573 171.268 93.4141 172.148 93.4141C172.727 93.4141 173.284 93.4714 173.82 93.5859C174.357 93.7005 174.841 93.8646 175.273 94.0781L174.742 95.2031C174.378 95.0365 173.977 94.8932 173.539 94.7734C173.107 94.6484 172.638 94.5859 172.133 94.5859ZM187.234 99.2734C187.234 100.154 187.122 100.956 186.898 101.68C186.674 102.398 186.341 103.018 185.898 103.539C185.461 104.055 184.917 104.453 184.266 104.734C183.615 105.016 182.859 105.156 182 105.156C181.115 105.156 180.341 105.016 179.68 104.734C179.023 104.453 178.477 104.052 178.039 103.531C177.607 103.01 177.281 102.388 177.062 101.664C176.849 100.94 176.742 100.138 176.742 99.2578C176.742 98.0911 176.935 97.0677 177.32 96.1875C177.706 95.3073 178.289 94.6224 179.07 94.1328C179.857 93.6432 180.841 93.3984 182.023 93.3984C183.154 93.3984 184.104 93.6406 184.875 94.125C185.651 94.6094 186.237 95.2917 186.633 96.1719C187.034 97.0469 187.234 98.0807 187.234 99.2734ZM178.141 99.2734C178.141 100.242 178.279 101.081 178.555 101.789C178.831 102.497 179.253 103.044 179.82 103.43C180.393 103.815 181.12 104.008 182 104.008C182.885 104.008 183.609 103.815 184.172 103.43C184.74 103.044 185.159 102.497 185.43 101.789C185.701 101.081 185.836 100.242 185.836 99.2734C185.836 97.7995 185.526 96.6484 184.906 95.8203C184.292 94.987 183.331 94.5703 182.023 94.5703C181.138 94.5703 180.409 94.7604 179.836 95.1406C179.263 95.5208 178.836 96.0625 178.555 96.7656C178.279 97.4635 178.141 98.2995 178.141 99.2734ZM197.758 93.5781L193.656 105H192.32L188.219 93.5781H189.609L192.281 101.102C192.391 101.404 192.487 101.693 192.57 101.969C192.659 102.245 192.737 102.51 192.805 102.766C192.872 103.021 192.932 103.268 192.984 103.508C193.036 103.268 193.096 103.021 193.164 102.766C193.232 102.505 193.31 102.237 193.398 101.961C193.487 101.68 193.586 101.385 193.695 101.078L196.352 93.5781H197.758ZM205.688 105H199.328V93.5781H205.688V94.75H200.656V98.4453H205.398V99.6016H200.656V103.828H205.688V105ZM211.305 93.5781C212.242 93.5781 213.016 93.6953 213.625 93.9297C214.24 94.1589 214.698 94.5104 215 94.9844C215.302 95.4583 215.453 96.0625 215.453 96.7969C215.453 97.401 215.344 97.9062 215.125 98.3125C214.906 98.7135 214.62 99.0391 214.266 99.2891C213.911 99.5391 213.534 99.7318 213.133 99.8672L216.266 105H214.719L211.922 100.234H209.547V105H208.219V93.5781H211.305ZM211.227 94.7266H209.547V99.1094H211.359C212.292 99.1094 212.977 98.9193 213.414 98.5391C213.857 98.1589 214.078 97.599 214.078 96.8594C214.078 96.0833 213.844 95.5339 213.375 95.2109C212.911 94.888 212.195 94.7266 211.227 94.7266Z" fill="#101828"/>
</svg>
